<svg width="171" height="171" viewBox="0 0 171 171" fill="none" xmlns="http://www.w3.org/2000/svg">
<circle cx="85.5" cy="85.5" r="84.5" fill="#3D1556" stroke="#3D1556" stroke-width="2"/>
<path d="M61.992 97.36L62.088 104.944C62.088 109.808 61.672 113.776 60.84 116.848C59.752 120.048 57.992 122.576 55.56 124.432C53.192 126.288 50.664 127.216 47.976 127.216C45.288 127.216 43.208 126.608 41.736 125.392C40.264 124.24 39.368 123.088 39.048 121.936L38.568 120.208C38.504 119.888 38.472 119.312 38.472 118.48C38.472 117.648 38.728 116.912 39.24 116.272C39.688 115.632 40.392 115.216 41.352 115.024C43.016 115.024 44.456 114.48 45.672 113.392C46.888 112.304 47.688 111.312 48.072 110.416C48.52 109.52 48.744 108.944 48.744 108.688C49.704 103.632 50.184 96.528 50.184 87.376L49.896 74.608C49.832 73.584 49.544 72.624 49.032 71.728C48.584 70.832 47.976 70.032 47.208 69.328C46.44 68.624 46.056 67.856 46.056 67.024C46.056 64.848 47.72 62.928 51.048 61.264C54.44 59.536 57.256 58.672 59.496 58.672C61.8 58.672 62.952 60.112 62.952 62.992C62.952 64.592 62.792 67.76 62.472 72.496C62.152 82.48 61.992 90.768 61.992 97.36ZM64.104 44.08C63.912 46.448 62.728 48.368 60.552 49.84C58.376 51.248 56.264 51.952 54.216 51.952C52.168 51.952 50.504 51.536 49.224 50.704C48.008 49.872 47.4 48.72 47.4 47.248C47.4 44.944 48.552 43.056 50.856 41.584C53.224 40.112 55.432 39.376 57.48 39.376C59.528 39.376 61.128 39.792 62.28 40.624C63.432 41.456 64.04 42.608 64.104 44.08ZM83.6708 81.52L83.4788 88.72C83.4788 93.2 83.5748 96.336 83.7668 98.128C83.9588 99.856 84.0548 100.944 84.0548 101.392C84.0548 103.504 83.3188 105.072 81.8468 106.096C79.4148 107.76 76.3748 108.592 72.7268 108.592C70.1028 108.592 68.7908 107.472 68.7908 105.232L68.9828 103.696C70.6468 95.888 71.4788 86.096 71.4788 74.32C71.4788 73.296 71.2548 72.368 70.8068 71.536C70.3588 70.704 69.6548 69.936 68.6948 69.232C67.9908 68.592 67.6388 67.888 67.6388 67.12C67.6388 65.072 69.3348 63.088 72.7268 61.168C76.1188 59.248 78.7748 58.288 80.6948 58.288C82.6788 58.288 83.7348 59.344 83.8628 61.456C83.9908 62.352 84.0868 63.28 84.1508 64.24C84.2788 64.688 84.5028 64.912 84.8228 64.912C84.8868 64.912 85.0788 64.816 85.3988 64.624C86.2308 63.344 87.6388 62.16 89.6228 61.072C91.6708 59.984 93.6548 59.44 95.5748 59.44C99.8628 59.44 102.647 61.552 103.927 65.776C104.055 65.968 104.215 66.064 104.407 66.064C104.599 66.064 104.823 65.904 105.079 65.584C107.511 61.488 111.191 59.44 116.119 59.44C120.151 59.44 122.679 61.52 123.703 65.68C124.471 68.752 124.855 72.4 124.855 76.624L124.375 88.816C124.375 93.744 125.463 96.784 127.639 97.936C128.727 98.512 129.271 99.344 129.271 100.432C129.271 102.288 127.959 103.984 125.335 105.52C122.775 106.992 120.055 107.728 117.175 107.728C114.295 107.728 112.631 106.64 112.183 104.464C112.055 103.888 111.991 102.416 111.991 100.048L112.567 84.784C112.631 84.144 112.663 83.28 112.663 82.192C112.663 76.56 111.479 73.744 109.111 73.744C107.575 73.744 106.391 74.672 105.559 76.528C104.791 78.32 104.375 80.016 104.311 81.616C104.247 83.216 104.215 85.264 104.215 87.76C104.215 90.256 104.247 92.432 104.311 94.288C104.439 96.144 104.567 97.648 104.695 98.8C104.823 99.888 104.887 100.56 104.887 100.816C104.887 102.736 104.055 104.336 102.391 105.616C100.791 106.896 98.3908 107.536 95.1908 107.536C92.0548 107.536 90.4868 106.512 90.4868 104.464L90.8708 102.256C91.7668 98.096 92.2148 91.312 92.2148 81.904C92.2148 76.272 90.9988 73.456 88.5668 73.456C86.9668 73.456 85.7508 74.352 84.9188 76.144C84.0868 77.936 83.6708 79.728 83.6708 81.52Z" fill="white"/>
<path d="M78.34 114.4C80.58 114.4 82.26 114.82 83.38 115.66C84.5 116.5 85.06 117.795 85.06 119.545C85.13 121.225 84.08 122.87 81.91 124.48C79.81 126.09 77.64 126.895 75.4 126.895C73.23 126.895 71.55 126.51 70.36 125.74C69.24 124.9 68.68 123.815 68.68 122.485C68.68 120.315 69.73 118.425 71.83 116.815C73.93 115.205 76.1 114.4 78.34 114.4ZM100.333 114.4C102.573 114.4 104.253 114.82 105.373 115.66C106.493 116.5 107.053 117.795 107.053 119.545C107.123 121.225 106.073 122.87 103.903 124.48C101.803 126.09 99.6326 126.895 97.3926 126.895C95.2226 126.895 93.5426 126.51 92.3526 125.74C91.2326 124.9 90.6726 123.815 90.6726 122.485C90.6726 120.315 91.7226 118.425 93.8226 116.815C95.9226 115.205 98.0926 114.4 100.333 114.4ZM122.325 114.4C124.565 114.4 126.245 114.82 127.365 115.66C128.485 116.5 129.045 117.795 129.045 119.545C129.115 121.225 128.065 122.87 125.895 124.48C123.795 126.09 121.625 126.895 119.385 126.895C117.215 126.895 115.535 126.51 114.345 125.74C113.225 124.9 112.665 123.815 112.665 122.485C112.665 120.315 113.715 118.425 115.815 116.815C117.915 115.205 120.085 114.4 122.325 114.4Z" fill="white"/>
</svg>
