<svg width="40" height="40" viewBox="0 0 40 40" fill="none" xmlns="http://www.w3.org/2000/svg">
<path d="M40 20C40 31.0457 31.0457 40 20 40C8.9543 40 0 31.0457 0 20C0 8.9543 8.9543 0 20 0C31.0457 0 40 8.9543 40 20Z" fill="#3D1556"/>
<path d="M14.4332 22.687L14.4561 24.5015C14.4561 25.6653 14.3567 26.6147 14.158 27.3497C13.898 28.1154 13.4775 28.7202 12.8964 29.1643C12.3306 29.6084 11.7266 29.8304 11.0843 29.8304C10.4421 29.8304 9.94507 29.685 9.59336 29.394C9.24165 29.1184 9.02756 28.8427 8.9511 28.5671L8.83641 28.1537C8.82112 28.0771 8.81348 27.9393 8.81348 27.7402C8.81348 27.5411 8.87464 27.365 8.99698 27.2119C9.10402 27.0588 9.27223 26.9593 9.50161 26.9133C9.89919 26.9133 10.2433 26.7832 10.5338 26.5228C10.8243 26.2625 11.0155 26.0252 11.1072 25.8108C11.2143 25.5964 11.2678 25.4586 11.2678 25.3973C11.4972 24.1876 11.6119 22.4879 11.6119 20.2981L11.5431 17.2432C11.5278 16.9982 11.459 16.7685 11.3366 16.5541C11.2296 16.3398 11.0843 16.1484 10.9008 15.9799C10.7173 15.8115 10.6256 15.6277 10.6256 15.4286C10.6256 14.908 11.0231 14.4486 11.8183 14.0505C12.6288 13.637 13.3016 13.4303 13.8368 13.4303C14.3873 13.4303 14.6626 13.7749 14.6626 14.4639C14.6626 14.8468 14.6244 15.6047 14.5479 16.7379C14.4714 19.1267 14.4332 21.1097 14.4332 22.687ZM14.9378 9.93897C14.892 10.5056 14.6091 10.9649 14.0891 11.3171C13.5692 11.654 13.0646 11.8225 12.5753 11.8225C12.0859 11.8225 11.6883 11.7229 11.3825 11.5239C11.092 11.3248 10.9467 11.0492 10.9467 10.697C10.9467 10.1457 11.2219 9.69397 11.7724 9.34177C12.3382 8.98957 12.8658 8.81348 13.3551 8.81348C13.8445 8.81348 14.2268 8.91301 14.502 9.11208C14.7773 9.31114 14.9225 9.58678 14.9378 9.93897Z" fill="white"/>
<path d="M19.613 18.897L19.5671 20.6197C19.5671 21.6916 19.5901 22.442 19.6359 22.8707C19.6818 23.2842 19.7047 23.5445 19.7047 23.6517C19.7047 24.157 19.5289 24.5322 19.1772 24.7772C18.5961 25.1753 17.8697 25.3744 16.9981 25.3744C16.3711 25.3744 16.0577 25.1064 16.0577 24.5704L16.1035 24.2029C16.5011 22.3348 16.6999 19.9919 16.6999 17.1743C16.6999 16.9293 16.6464 16.7073 16.5393 16.5082C16.4323 16.3091 16.2641 16.1254 16.0347 15.9569C15.8665 15.8038 15.7824 15.6354 15.7824 15.4516C15.7824 14.9616 16.1876 14.4869 16.9981 14.0275C17.8086 13.5681 18.4432 13.3384 18.9019 13.3384C19.376 13.3384 19.6283 13.5911 19.6589 14.0964C19.6895 14.3108 19.7124 14.5328 19.7277 14.7625C19.7583 14.8697 19.8118 14.9233 19.8882 14.9233C19.9035 14.9233 19.9494 14.9004 20.0259 14.8544C20.2247 14.5482 20.5611 14.2649 21.0351 14.0045C21.5245 13.7442 21.9985 13.6141 22.4573 13.6141C23.4818 13.6141 24.147 14.1194 24.4528 15.13C24.4834 15.176 24.5217 15.199 24.5675 15.199C24.6134 15.199 24.6669 15.1607 24.7281 15.0841C25.3092 14.1041 26.1885 13.6141 27.3659 13.6141C28.3293 13.6141 28.9333 14.1117 29.178 15.1071C29.3615 15.8421 29.4533 16.7149 29.4533 17.7256L29.3386 20.6427C29.3386 21.8218 29.5985 22.5491 30.1184 22.8248C30.3784 22.9626 30.5084 23.1617 30.5084 23.422C30.5084 23.8661 30.1949 24.2718 29.5679 24.6394C28.9563 24.9915 28.3064 25.1676 27.6182 25.1676C26.9301 25.1676 26.5325 24.9073 26.4255 24.3867C26.3949 24.2489 26.3796 23.8967 26.3796 23.3301L26.5172 19.678C26.5325 19.5248 26.5402 19.3181 26.5402 19.0578C26.5402 17.7103 26.2573 17.0365 25.6915 17.0365C25.3245 17.0365 25.0416 17.2585 24.8428 17.7026C24.6593 18.1314 24.5599 18.5372 24.5446 18.92C24.5293 19.3028 24.5217 19.7928 24.5217 20.39C24.5217 20.9872 24.5293 21.5079 24.5446 21.9519C24.5752 22.396 24.6058 22.7559 24.6363 23.0315C24.6669 23.2918 24.6822 23.4526 24.6822 23.5139C24.6822 23.9732 24.4834 24.3561 24.0858 24.6623C23.7035 24.9686 23.1301 25.1217 22.3655 25.1217C21.6162 25.1217 21.2416 24.8767 21.2416 24.3867L21.3333 23.8584C21.5474 22.8631 21.6545 21.2399 21.6545 18.9889C21.6545 17.6414 21.3639 16.9676 20.7828 16.9676C20.4005 16.9676 20.11 17.182 19.9112 17.6107C19.7124 18.0395 19.613 18.4683 19.613 18.897Z" fill="white"/>
<path d="M18.2651 26.7798C18.8059 26.7798 19.2116 26.8823 19.482 27.0874C19.7524 27.2925 19.8877 27.6087 19.8877 28.036C19.9046 28.4462 19.651 28.8479 19.1271 29.241C18.62 29.6341 18.0961 29.8306 17.5552 29.8306C17.0312 29.8306 16.6256 29.7366 16.3383 29.5486C16.0678 29.3435 15.9326 29.0786 15.9326 28.7539C15.9326 28.224 16.1861 27.7626 16.6932 27.3694C17.2003 26.9763 17.7242 26.7798 18.2651 26.7798Z" fill="white"/>
<path d="M23.5753 26.7798C24.1162 26.7798 24.5218 26.8823 24.7922 27.0874C25.0627 27.2925 25.1979 27.6087 25.1979 28.036C25.2148 28.4462 24.9612 28.8479 24.4373 29.241C23.9302 29.6341 23.4063 29.8306 22.8654 29.8306C22.3415 29.8306 21.9358 29.7366 21.6485 29.5486C21.3781 29.3435 21.2428 29.0786 21.2428 28.7539C21.2428 28.224 21.4964 27.7626 22.0034 27.3694C22.5105 26.9763 23.0344 26.7798 23.5753 26.7798Z" fill="white"/>
<path d="M28.8855 26.7798C29.4264 26.7798 29.832 26.8823 30.1025 27.0874C30.3729 27.2925 30.5081 27.6087 30.5081 28.036C30.525 28.4462 30.2715 28.8479 29.7475 29.241C29.2405 29.6341 28.7165 29.8306 28.1756 29.8306C27.6517 29.8306 27.246 29.7366 26.9587 29.5486C26.6883 29.3435 26.5531 29.0786 26.5531 28.7539C26.5531 28.224 26.8066 27.7626 27.3136 27.3694C27.8207 26.9763 28.3447 26.7798 28.8855 26.7798Z" fill="white"/>
</svg>
